<svg xmlns="http://www.w3.org/2000/svg" viewBox="0 0 200 230">
  <defs>
    <linearGradient id="d" x1="0" y1="0" x2="0.3" y2="1">
      <stop offset="0%" stop-color="#1e3a8a"/>
      <stop offset="100%" stop-color="#0f2050"/>
    </linearGradient>
    <linearGradient id="b" x1="0" y1="0" x2="1" y2="0.9">
      <stop offset="0%" stop-color="#3b82f6"/>
      <stop offset="100%" stop-color="#1d4ed8"/>
    </linearGradient>
    <linearGradient id="wb" x1="0" y1="0" x2="1" y2="0">
      <stop offset="0%" stop-color="#1d4ed8"/>
      <stop offset="100%" stop-color="#1e40af"/>
    </linearGradient>
    <linearGradient id="wf" x1="0" y1="0" x2="1" y2="0">
      <stop offset="0%" stop-color="#38bdf8"/>
      <stop offset="100%" stop-color="#7dd3fc"/>
    </linearGradient>
  </defs>
  <path d="M100 8 C68 52 34 104 34 148 A66 66 0 0 0 166 148 C166 104 132 52 100 8 Z" fill="url(#b)"/>
  <path d="M100 8 C80 40 60 75 48 112 C40 138 40 162 48 184 C36 168 27 148 27 130 C27 100 55 55 100 8 Z" fill="url(#d)"/>
  <path d="M100 56 L65 162 M100 56 L135 162 M82 132 L118 132" stroke="#ffffff" stroke-width="15" stroke-linecap="round" stroke-linejoin="round" fill="none"/>
  <path d="M16 172 C34 196 62 214 96 214 C124 214 146 202 168 196 C182 192 190 192 188 196 C176 210 152 224 118 224 C78 224 44 206 22 182 C18 178 16 174 16 172 Z" fill="url(#wb)"/>
  <path d="M10 182 C30 204 58 220 92 220 C122 220 146 208 172 200 C182 197 188 197 186 200 C172 216 146 230 112 230 C72 230 38 212 16 190 C12 186 10 184 10 182 Z" fill="url(#wf)"/>
</svg>
